<?xml version="1.0" encoding="UTF-8"?>
<svg xmlns="http://www.w3.org/2000/svg" width="1300" height="520" viewBox="0 0 1300 520">
<rect x="0" y="0" width="1300" height="520" fill="white"/>
<text x="650.00" y="36.00" fill="#000" font-size="20" font-family="Arial, sans-serif" text-anchor="middle" font-weight="bold">Matrix Multiplication Runtime Scaling by Threads</text>
<rect x="70.00" y="90.00" width="360.00" height="300.00" fill="none" stroke="#999999" stroke-width="1.00" rx="0.00"/>
<line x1="70.00" y1="355.23" x2="430.00" y2="355.23" stroke="#e6e6e6" stroke-width="1.00"/>
<text x="62.00" y="359.23" fill="#444444" font-size="11" font-family="Arial, sans-serif" text-anchor="end" font-weight="normal">0.0500</text>
<line x1="70.00" y1="326.14" x2="430.00" y2="326.14" stroke="#e6e6e6" stroke-width="1.00"/>
<text x="62.00" y="330.14" fill="#444444" font-size="11" font-family="Arial, sans-serif" text-anchor="end" font-weight="normal">0.100</text>
<line x1="70.00" y1="297.05" x2="430.00" y2="297.05" stroke="#e6e6e6" stroke-width="1.00"/>
<text x="62.00" y="301.05" fill="#444444" font-size="11" font-family="Arial, sans-serif" text-anchor="end" font-weight="normal">0.200</text>
<line x1="70.00" y1="258.59" x2="430.00" y2="258.59" stroke="#e6e6e6" stroke-width="1.00"/>
<text x="62.00" y="262.59" fill="#444444" font-size="11" font-family="Arial, sans-serif" text-anchor="end" font-weight="normal">0.500</text>
<line x1="70.00" y1="229.50" x2="430.00" y2="229.50" stroke="#e6e6e6" stroke-width="1.00"/>
<text x="62.00" y="233.50" fill="#444444" font-size="11" font-family="Arial, sans-serif" text-anchor="end" font-weight="normal">1.00</text>
<line x1="70.00" y1="200.40" x2="430.00" y2="200.40" stroke="#e6e6e6" stroke-width="1.00"/>
<text x="62.00" y="204.40" fill="#444444" font-size="11" font-family="Arial, sans-serif" text-anchor="end" font-weight="normal">2.00</text>
<line x1="70.00" y1="161.94" x2="430.00" y2="161.94" stroke="#e6e6e6" stroke-width="1.00"/>
<text x="62.00" y="165.94" fill="#444444" font-size="11" font-family="Arial, sans-serif" text-anchor="end" font-weight="normal">5.00</text>
<line x1="70.00" y1="132.85" x2="430.00" y2="132.85" stroke="#e6e6e6" stroke-width="1.00"/>
<text x="62.00" y="136.85" fill="#444444" font-size="11" font-family="Arial, sans-serif" text-anchor="end" font-weight="normal">10.0</text>
<line x1="70.00" y1="103.76" x2="430.00" y2="103.76" stroke="#e6e6e6" stroke-width="1.00"/>
<text x="62.00" y="107.76" fill="#444444" font-size="11" font-family="Arial, sans-serif" text-anchor="end" font-weight="normal">20.0</text>
<line x1="70.00" y1="90.00" x2="70.00" y2="390.00" stroke="#f1f1f1" stroke-width="1.00"/>
<text x="70.00" y="408.00" fill="#333333" font-size="11" font-family="Arial, sans-serif" text-anchor="middle" font-weight="normal">1</text>
<line x1="160.00" y1="90.00" x2="160.00" y2="390.00" stroke="#f1f1f1" stroke-width="1.00"/>
<text x="160.00" y="408.00" fill="#333333" font-size="11" font-family="Arial, sans-serif" text-anchor="middle" font-weight="normal">2</text>
<line x1="250.00" y1="90.00" x2="250.00" y2="390.00" stroke="#f1f1f1" stroke-width="1.00"/>
<text x="250.00" y="408.00" fill="#333333" font-size="11" font-family="Arial, sans-serif" text-anchor="middle" font-weight="normal">4</text>
<line x1="340.00" y1="90.00" x2="340.00" y2="390.00" stroke="#f1f1f1" stroke-width="1.00"/>
<text x="340.00" y="408.00" fill="#333333" font-size="11" font-family="Arial, sans-serif" text-anchor="middle" font-weight="normal">8</text>
<line x1="430.00" y1="90.00" x2="430.00" y2="390.00" stroke="#f1f1f1" stroke-width="1.00"/>
<text x="430.00" y="408.00" fill="#333333" font-size="11" font-family="Arial, sans-serif" text-anchor="middle" font-weight="normal">16</text>
<line x1="70.00" y1="390.00" x2="430.00" y2="390.00" stroke="#666666" stroke-width="1.30"/>
<line x1="70.00" y1="90.00" x2="70.00" y2="390.00" stroke="#666666" stroke-width="1.30"/>
<polyline points="70.00,277.77 160.00,305.06 250.00,324.89 340.00,357.58 430.00,372.40" fill="none" stroke="#1f77b4" stroke-width="2.20" stroke-linejoin="round" stroke-linecap="round"/>
<circle cx="70.00" cy="277.77" r="2.80" fill="#1f77b4" stroke="none" stroke-width="1.00"/>
<circle cx="160.00" cy="305.06" r="2.80" fill="#1f77b4" stroke="none" stroke-width="1.00"/>
<circle cx="250.00" cy="324.89" r="2.80" fill="#1f77b4" stroke="none" stroke-width="1.00"/>
<circle cx="340.00" cy="357.58" r="2.80" fill="#1f77b4" stroke="none" stroke-width="1.00"/>
<circle cx="430.00" cy="372.40" r="2.80" fill="#1f77b4" stroke="none" stroke-width="1.00"/>
<polyline points="70.00,278.21 160.00,301.90 250.00,329.93 340.00,358.50 430.00,374.11" fill="none" stroke="#2ca02c" stroke-width="2.20" stroke-linejoin="round" stroke-linecap="round"/>
<circle cx="70.00" cy="278.21" r="2.80" fill="#2ca02c" stroke="none" stroke-width="1.00"/>
<circle cx="160.00" cy="301.90" r="2.80" fill="#2ca02c" stroke="none" stroke-width="1.00"/>
<circle cx="250.00" cy="329.93" r="2.80" fill="#2ca02c" stroke="none" stroke-width="1.00"/>
<circle cx="340.00" cy="358.50" r="2.80" fill="#2ca02c" stroke="none" stroke-width="1.00"/>
<circle cx="430.00" cy="374.11" r="2.80" fill="#2ca02c" stroke="none" stroke-width="1.00"/>
<polyline points="70.00,278.73 160.00,304.92 250.00,334.08 340.00,363.19 430.00,382.08" fill="none" stroke="#d62728" stroke-width="2.20" stroke-linejoin="round" stroke-linecap="round"/>
<circle cx="70.00" cy="278.73" r="2.80" fill="#d62728" stroke="none" stroke-width="1.00"/>
<circle cx="160.00" cy="304.92" r="2.80" fill="#d62728" stroke="none" stroke-width="1.00"/>
<circle cx="250.00" cy="334.08" r="2.80" fill="#d62728" stroke="none" stroke-width="1.00"/>
<circle cx="340.00" cy="363.19" r="2.80" fill="#d62728" stroke="none" stroke-width="1.00"/>
<circle cx="430.00" cy="382.08" r="2.80" fill="#d62728" stroke="none" stroke-width="1.00"/>
<polyline points="70.00,299.77 160.00,335.47 250.00,359.20 340.00,388.24 430.00,390.00" fill="none" stroke="#ff7f0e" stroke-width="2.20" stroke-linejoin="round" stroke-linecap="round"/>
<circle cx="70.00" cy="299.77" r="2.80" fill="#ff7f0e" stroke="none" stroke-width="1.00"/>
<circle cx="160.00" cy="335.47" r="2.80" fill="#ff7f0e" stroke="none" stroke-width="1.00"/>
<circle cx="250.00" cy="359.20" r="2.80" fill="#ff7f0e" stroke="none" stroke-width="1.00"/>
<circle cx="340.00" cy="388.24" r="2.80" fill="#ff7f0e" stroke="none" stroke-width="1.00"/>
<circle cx="430.00" cy="390.00" r="2.80" fill="#ff7f0e" stroke="none" stroke-width="1.00"/>
<polyline points="70.00,300.84 160.00,329.92 250.00,352.76 340.00,381.58 430.00,388.34" fill="none" stroke="#9467bd" stroke-width="2.20" stroke-linejoin="round" stroke-linecap="round"/>
<circle cx="70.00" cy="300.84" r="2.80" fill="#9467bd" stroke="none" stroke-width="1.00"/>
<circle cx="160.00" cy="329.92" r="2.80" fill="#9467bd" stroke="none" stroke-width="1.00"/>
<circle cx="250.00" cy="352.76" r="2.80" fill="#9467bd" stroke="none" stroke-width="1.00"/>
<circle cx="340.00" cy="381.58" r="2.80" fill="#9467bd" stroke="none" stroke-width="1.00"/>
<circle cx="430.00" cy="388.34" r="2.80" fill="#9467bd" stroke="none" stroke-width="1.00"/>
<text x="250.00" y="78.00" fill="#000" font-size="13" font-family="Arial, sans-serif" text-anchor="middle" font-weight="bold">light</text>
<text x="250.00" y="428.00" fill="#000" font-size="12" font-family="Arial, sans-serif" text-anchor="middle" font-weight="normal">threads</text>
<text x="58.00" y="78.00" fill="#444444" font-size="11" font-family="Arial, sans-serif" text-anchor="end" font-weight="normal">best_s (s, log)</text>
<rect x="465.00" y="90.00" width="360.00" height="300.00" fill="none" stroke="#999999" stroke-width="1.00" rx="0.00"/>
<line x1="465.00" y1="355.23" x2="825.00" y2="355.23" stroke="#e6e6e6" stroke-width="1.00"/>
<line x1="465.00" y1="326.14" x2="825.00" y2="326.14" stroke="#e6e6e6" stroke-width="1.00"/>
<line x1="465.00" y1="297.05" x2="825.00" y2="297.05" stroke="#e6e6e6" stroke-width="1.00"/>
<line x1="465.00" y1="258.59" x2="825.00" y2="258.59" stroke="#e6e6e6" stroke-width="1.00"/>
<line x1="465.00" y1="229.50" x2="825.00" y2="229.50" stroke="#e6e6e6" stroke-width="1.00"/>
<line x1="465.00" y1="200.40" x2="825.00" y2="200.40" stroke="#e6e6e6" stroke-width="1.00"/>
<line x1="465.00" y1="161.94" x2="825.00" y2="161.94" stroke="#e6e6e6" stroke-width="1.00"/>
<line x1="465.00" y1="132.85" x2="825.00" y2="132.85" stroke="#e6e6e6" stroke-width="1.00"/>
<line x1="465.00" y1="103.76" x2="825.00" y2="103.76" stroke="#e6e6e6" stroke-width="1.00"/>
<line x1="465.00" y1="90.00" x2="465.00" y2="390.00" stroke="#f1f1f1" stroke-width="1.00"/>
<text x="465.00" y="408.00" fill="#333333" font-size="11" font-family="Arial, sans-serif" text-anchor="middle" font-weight="normal">1</text>
<line x1="555.00" y1="90.00" x2="555.00" y2="390.00" stroke="#f1f1f1" stroke-width="1.00"/>
<text x="555.00" y="408.00" fill="#333333" font-size="11" font-family="Arial, sans-serif" text-anchor="middle" font-weight="normal">2</text>
<line x1="645.00" y1="90.00" x2="645.00" y2="390.00" stroke="#f1f1f1" stroke-width="1.00"/>
<text x="645.00" y="408.00" fill="#333333" font-size="11" font-family="Arial, sans-serif" text-anchor="middle" font-weight="normal">4</text>
<line x1="735.00" y1="90.00" x2="735.00" y2="390.00" stroke="#f1f1f1" stroke-width="1.00"/>
<text x="735.00" y="408.00" fill="#333333" font-size="11" font-family="Arial, sans-serif" text-anchor="middle" font-weight="normal">8</text>
<line x1="825.00" y1="90.00" x2="825.00" y2="390.00" stroke="#f1f1f1" stroke-width="1.00"/>
<text x="825.00" y="408.00" fill="#333333" font-size="11" font-family="Arial, sans-serif" text-anchor="middle" font-weight="normal">16</text>
<line x1="465.00" y1="390.00" x2="825.00" y2="390.00" stroke="#666666" stroke-width="1.30"/>
<line x1="465.00" y1="90.00" x2="465.00" y2="390.00" stroke="#666666" stroke-width="1.30"/>
<polyline points="465.00,180.65 555.00,202.44 645.00,228.96 735.00,255.81 825.00,284.83" fill="none" stroke="#1f77b4" stroke-width="2.20" stroke-linejoin="round" stroke-linecap="round"/>
<circle cx="465.00" cy="180.65" r="2.80" fill="#1f77b4" stroke="none" stroke-width="1.00"/>
<circle cx="555.00" cy="202.44" r="2.80" fill="#1f77b4" stroke="none" stroke-width="1.00"/>
<circle cx="645.00" cy="228.96" r="2.80" fill="#1f77b4" stroke="none" stroke-width="1.00"/>
<circle cx="735.00" cy="255.81" r="2.80" fill="#1f77b4" stroke="none" stroke-width="1.00"/>
<circle cx="825.00" cy="284.83" r="2.80" fill="#1f77b4" stroke="none" stroke-width="1.00"/>
<polyline points="465.00,177.19 555.00,210.33 645.00,229.45 735.00,256.34 825.00,285.14" fill="none" stroke="#2ca02c" stroke-width="2.20" stroke-linejoin="round" stroke-linecap="round"/>
<circle cx="465.00" cy="177.19" r="2.80" fill="#2ca02c" stroke="none" stroke-width="1.00"/>
<circle cx="555.00" cy="210.33" r="2.80" fill="#2ca02c" stroke="none" stroke-width="1.00"/>
<circle cx="645.00" cy="229.45" r="2.80" fill="#2ca02c" stroke="none" stroke-width="1.00"/>
<circle cx="735.00" cy="256.34" r="2.80" fill="#2ca02c" stroke="none" stroke-width="1.00"/>
<circle cx="825.00" cy="285.14" r="2.80" fill="#2ca02c" stroke="none" stroke-width="1.00"/>
<polyline points="465.00,173.92 555.00,201.46 645.00,227.31 735.00,261.20 825.00,289.95" fill="none" stroke="#d62728" stroke-width="2.20" stroke-linejoin="round" stroke-linecap="round"/>
<circle cx="465.00" cy="173.92" r="2.80" fill="#d62728" stroke="none" stroke-width="1.00"/>
<circle cx="555.00" cy="201.46" r="2.80" fill="#d62728" stroke="none" stroke-width="1.00"/>
<circle cx="645.00" cy="227.31" r="2.80" fill="#d62728" stroke="none" stroke-width="1.00"/>
<circle cx="735.00" cy="261.20" r="2.80" fill="#d62728" stroke="none" stroke-width="1.00"/>
<circle cx="825.00" cy="289.95" r="2.80" fill="#d62728" stroke="none" stroke-width="1.00"/>
<polyline points="465.00,202.18 555.00,232.07 645.00,260.75 735.00,291.86 825.00,296.59" fill="none" stroke="#ff7f0e" stroke-width="2.20" stroke-linejoin="round" stroke-linecap="round"/>
<circle cx="465.00" cy="202.18" r="2.80" fill="#ff7f0e" stroke="none" stroke-width="1.00"/>
<circle cx="555.00" cy="232.07" r="2.80" fill="#ff7f0e" stroke="none" stroke-width="1.00"/>
<circle cx="645.00" cy="260.75" r="2.80" fill="#ff7f0e" stroke="none" stroke-width="1.00"/>
<circle cx="735.00" cy="291.86" r="2.80" fill="#ff7f0e" stroke="none" stroke-width="1.00"/>
<circle cx="825.00" cy="296.59" r="2.80" fill="#ff7f0e" stroke="none" stroke-width="1.00"/>
<polyline points="465.00,202.66 555.00,229.73 645.00,256.74 735.00,286.03 825.00,295.12" fill="none" stroke="#9467bd" stroke-width="2.20" stroke-linejoin="round" stroke-linecap="round"/>
<circle cx="465.00" cy="202.66" r="2.80" fill="#9467bd" stroke="none" stroke-width="1.00"/>
<circle cx="555.00" cy="229.73" r="2.80" fill="#9467bd" stroke="none" stroke-width="1.00"/>
<circle cx="645.00" cy="256.74" r="2.80" fill="#9467bd" stroke="none" stroke-width="1.00"/>
<circle cx="735.00" cy="286.03" r="2.80" fill="#9467bd" stroke="none" stroke-width="1.00"/>
<circle cx="825.00" cy="295.12" r="2.80" fill="#9467bd" stroke="none" stroke-width="1.00"/>
<text x="645.00" y="78.00" fill="#000" font-size="13" font-family="Arial, sans-serif" text-anchor="middle" font-weight="bold">mid</text>
<text x="645.00" y="428.00" fill="#000" font-size="12" font-family="Arial, sans-serif" text-anchor="middle" font-weight="normal">threads</text>
<rect x="860.00" y="90.00" width="360.00" height="300.00" fill="none" stroke="#999999" stroke-width="1.00" rx="0.00"/>
<line x1="860.00" y1="355.23" x2="1220.00" y2="355.23" stroke="#e6e6e6" stroke-width="1.00"/>
<line x1="860.00" y1="326.14" x2="1220.00" y2="326.14" stroke="#e6e6e6" stroke-width="1.00"/>
<line x1="860.00" y1="297.05" x2="1220.00" y2="297.05" stroke="#e6e6e6" stroke-width="1.00"/>
<line x1="860.00" y1="258.59" x2="1220.00" y2="258.59" stroke="#e6e6e6" stroke-width="1.00"/>
<line x1="860.00" y1="229.50" x2="1220.00" y2="229.50" stroke="#e6e6e6" stroke-width="1.00"/>
<line x1="860.00" y1="200.40" x2="1220.00" y2="200.40" stroke="#e6e6e6" stroke-width="1.00"/>
<line x1="860.00" y1="161.94" x2="1220.00" y2="161.94" stroke="#e6e6e6" stroke-width="1.00"/>
<line x1="860.00" y1="132.85" x2="1220.00" y2="132.85" stroke="#e6e6e6" stroke-width="1.00"/>
<line x1="860.00" y1="103.76" x2="1220.00" y2="103.76" stroke="#e6e6e6" stroke-width="1.00"/>
<line x1="860.00" y1="90.00" x2="860.00" y2="390.00" stroke="#f1f1f1" stroke-width="1.00"/>
<text x="860.00" y="408.00" fill="#333333" font-size="11" font-family="Arial, sans-serif" text-anchor="middle" font-weight="normal">1</text>
<line x1="950.00" y1="90.00" x2="950.00" y2="390.00" stroke="#f1f1f1" stroke-width="1.00"/>
<text x="950.00" y="408.00" fill="#333333" font-size="11" font-family="Arial, sans-serif" text-anchor="middle" font-weight="normal">2</text>
<line x1="1040.00" y1="90.00" x2="1040.00" y2="390.00" stroke="#f1f1f1" stroke-width="1.00"/>
<text x="1040.00" y="408.00" fill="#333333" font-size="11" font-family="Arial, sans-serif" text-anchor="middle" font-weight="normal">4</text>
<line x1="1130.00" y1="90.00" x2="1130.00" y2="390.00" stroke="#f1f1f1" stroke-width="1.00"/>
<text x="1130.00" y="408.00" fill="#333333" font-size="11" font-family="Arial, sans-serif" text-anchor="middle" font-weight="normal">8</text>
<line x1="1220.00" y1="90.00" x2="1220.00" y2="390.00" stroke="#f1f1f1" stroke-width="1.00"/>
<text x="1220.00" y="408.00" fill="#333333" font-size="11" font-family="Arial, sans-serif" text-anchor="middle" font-weight="normal">16</text>
<line x1="860.00" y1="390.00" x2="1220.00" y2="390.00" stroke="#666666" stroke-width="1.30"/>
<line x1="860.00" y1="90.00" x2="860.00" y2="390.00" stroke="#666666" stroke-width="1.30"/>
<polyline points="860.00,91.01 950.00,113.15 1040.00,141.44 1130.00,168.84 1220.00,196.48" fill="none" stroke="#1f77b4" stroke-width="2.20" stroke-linejoin="round" stroke-linecap="round"/>
<circle cx="860.00" cy="91.01" r="2.80" fill="#1f77b4" stroke="none" stroke-width="1.00"/>
<circle cx="950.00" cy="113.15" r="2.80" fill="#1f77b4" stroke="none" stroke-width="1.00"/>
<circle cx="1040.00" cy="141.44" r="2.80" fill="#1f77b4" stroke="none" stroke-width="1.00"/>
<circle cx="1130.00" cy="168.84" r="2.80" fill="#1f77b4" stroke="none" stroke-width="1.00"/>
<circle cx="1220.00" cy="196.48" r="2.80" fill="#1f77b4" stroke="none" stroke-width="1.00"/>
<polyline points="860.00,90.00 950.00,113.98 1040.00,141.68 1130.00,168.86 1220.00,196.62" fill="none" stroke="#2ca02c" stroke-width="2.20" stroke-linejoin="round" stroke-linecap="round"/>
<circle cx="860.00" cy="90.00" r="2.80" fill="#2ca02c" stroke="none" stroke-width="1.00"/>
<circle cx="950.00" cy="113.98" r="2.80" fill="#2ca02c" stroke="none" stroke-width="1.00"/>
<circle cx="1040.00" cy="141.68" r="2.80" fill="#2ca02c" stroke="none" stroke-width="1.00"/>
<circle cx="1130.00" cy="168.86" r="2.80" fill="#2ca02c" stroke="none" stroke-width="1.00"/>
<circle cx="1220.00" cy="196.62" r="2.80" fill="#2ca02c" stroke="none" stroke-width="1.00"/>
<polyline points="860.00,91.10 950.00,112.84 1040.00,140.70 1130.00,176.10 1220.00,203.59" fill="none" stroke="#d62728" stroke-width="2.20" stroke-linejoin="round" stroke-linecap="round"/>
<circle cx="860.00" cy="91.10" r="2.80" fill="#d62728" stroke="none" stroke-width="1.00"/>
<circle cx="950.00" cy="112.84" r="2.80" fill="#d62728" stroke="none" stroke-width="1.00"/>
<circle cx="1040.00" cy="140.70" r="2.80" fill="#d62728" stroke="none" stroke-width="1.00"/>
<circle cx="1130.00" cy="176.10" r="2.80" fill="#d62728" stroke="none" stroke-width="1.00"/>
<circle cx="1220.00" cy="203.59" r="2.80" fill="#d62728" stroke="none" stroke-width="1.00"/>
<polyline points="860.00,113.48 950.00,147.02 1040.00,174.19 1130.00,203.05 1220.00,210.34" fill="none" stroke="#ff7f0e" stroke-width="2.20" stroke-linejoin="round" stroke-linecap="round"/>
<circle cx="860.00" cy="113.48" r="2.80" fill="#ff7f0e" stroke="none" stroke-width="1.00"/>
<circle cx="950.00" cy="147.02" r="2.80" fill="#ff7f0e" stroke="none" stroke-width="1.00"/>
<circle cx="1040.00" cy="174.19" r="2.80" fill="#ff7f0e" stroke="none" stroke-width="1.00"/>
<circle cx="1130.00" cy="203.05" r="2.80" fill="#ff7f0e" stroke="none" stroke-width="1.00"/>
<circle cx="1220.00" cy="210.34" r="2.80" fill="#ff7f0e" stroke="none" stroke-width="1.00"/>
<polyline points="860.00,114.46 950.00,141.50 1040.00,168.72 1130.00,197.19 1220.00,207.54" fill="none" stroke="#9467bd" stroke-width="2.20" stroke-linejoin="round" stroke-linecap="round"/>
<circle cx="860.00" cy="114.46" r="2.80" fill="#9467bd" stroke="none" stroke-width="1.00"/>
<circle cx="950.00" cy="141.50" r="2.80" fill="#9467bd" stroke="none" stroke-width="1.00"/>
<circle cx="1040.00" cy="168.72" r="2.80" fill="#9467bd" stroke="none" stroke-width="1.00"/>
<circle cx="1130.00" cy="197.19" r="2.80" fill="#9467bd" stroke="none" stroke-width="1.00"/>
<circle cx="1220.00" cy="207.54" r="2.80" fill="#9467bd" stroke="none" stroke-width="1.00"/>
<text x="1040.00" y="78.00" fill="#000" font-size="13" font-family="Arial, sans-serif" text-anchor="middle" font-weight="bold">heavy</text>
<text x="1040.00" y="428.00" fill="#000" font-size="12" font-family="Arial, sans-serif" text-anchor="middle" font-weight="normal">threads</text>
<line x1="80.00" y1="443.00" x2="98.00" y2="443.00" stroke="#1f77b4" stroke-width="2.50"/>
<circle cx="89.00" cy="443.00" r="3.00" fill="#1f77b4" stroke="none" stroke-width="1.00"/>
<text x="104.00" y="447.00" fill="#000" font-size="13" font-family="Arial, sans-serif" text-anchor="start" font-weight="normal">classic</text>
<line x1="220.00" y1="443.00" x2="238.00" y2="443.00" stroke="#2ca02c" stroke-width="2.50"/>
<circle cx="229.00" cy="443.00" r="3.00" fill="#2ca02c" stroke="none" stroke-width="1.00"/>
<text x="244.00" y="447.00" fill="#000" font-size="13" font-family="Arial, sans-serif" text-anchor="start" font-weight="normal">coro</text>
<line x1="360.00" y1="443.00" x2="378.00" y2="443.00" stroke="#d62728" stroke-width="2.50"/>
<circle cx="369.00" cy="443.00" r="3.00" fill="#d62728" stroke="none" stroke-width="1.00"/>
<text x="384.00" y="447.00" fill="#000" font-size="13" font-family="Arial, sans-serif" text-anchor="start" font-weight="normal">ws</text>
<line x1="500.00" y1="443.00" x2="518.00" y2="443.00" stroke="#ff7f0e" stroke-width="2.50"/>
<circle cx="509.00" cy="443.00" r="3.00" fill="#ff7f0e" stroke="none" stroke-width="1.00"/>
<text x="524.00" y="447.00" fill="#000" font-size="13" font-family="Arial, sans-serif" text-anchor="start" font-weight="normal">advws</text>
<line x1="640.00" y1="443.00" x2="658.00" y2="443.00" stroke="#9467bd" stroke-width="2.50"/>
<circle cx="649.00" cy="443.00" r="3.00" fill="#9467bd" stroke="none" stroke-width="1.00"/>
<text x="664.00" y="447.00" fill="#000" font-size="13" font-family="Arial, sans-serif" text-anchor="start" font-weight="normal">elastic</text>
</svg>
