<?xml version="1.0" encoding="UTF-8"?>
<svg xmlns="http://www.w3.org/2000/svg" width="930" height="520" viewBox="0 0 930 520">
<rect x="0" y="0" width="930" height="520" fill="white"/>
<text x="465.00" y="34.00" fill="#000" font-size="20" font-family="Arial, sans-serif" text-anchor="middle" font-weight="bold">Matrix Multiplication Speedup vs Classic</text>
<rect x="90.00" y="90.00" width="700.00" height="300.00" fill="none" stroke="#999999" stroke-width="1.00" rx="0.00"/>
<line x1="90.00" y1="390.00" x2="790.00" y2="390.00" stroke="#e6e6e6" stroke-width="1.00"/>
<text x="82.00" y="394.00" fill="#444444" font-size="11" font-family="Arial, sans-serif" text-anchor="end" font-weight="normal">0.854</text>
<line x1="90.00" y1="330.00" x2="790.00" y2="330.00" stroke="#e6e6e6" stroke-width="1.00"/>
<text x="82.00" y="334.00" fill="#444444" font-size="11" font-family="Arial, sans-serif" text-anchor="end" font-weight="normal">1.15</text>
<line x1="90.00" y1="270.00" x2="790.00" y2="270.00" stroke="#e6e6e6" stroke-width="1.00"/>
<text x="82.00" y="274.00" fill="#444444" font-size="11" font-family="Arial, sans-serif" text-anchor="end" font-weight="normal">1.44</text>
<line x1="90.00" y1="210.00" x2="790.00" y2="210.00" stroke="#e6e6e6" stroke-width="1.00"/>
<text x="82.00" y="214.00" fill="#444444" font-size="11" font-family="Arial, sans-serif" text-anchor="end" font-weight="normal">1.74</text>
<line x1="90.00" y1="150.00" x2="790.00" y2="150.00" stroke="#e6e6e6" stroke-width="1.00"/>
<text x="82.00" y="154.00" fill="#444444" font-size="11" font-family="Arial, sans-serif" text-anchor="end" font-weight="normal">2.04</text>
<line x1="90.00" y1="90.00" x2="790.00" y2="90.00" stroke="#e6e6e6" stroke-width="1.00"/>
<text x="82.00" y="94.00" fill="#444444" font-size="11" font-family="Arial, sans-serif" text-anchor="end" font-weight="normal">2.33</text>
<line x1="90.00" y1="90.00" x2="90.00" y2="390.00" stroke="#f1f1f1" stroke-width="1.00"/>
<text x="90.00" y="408.00" fill="#333333" font-size="11" font-family="Arial, sans-serif" text-anchor="middle" font-weight="normal">1</text>
<line x1="265.00" y1="90.00" x2="265.00" y2="390.00" stroke="#f1f1f1" stroke-width="1.00"/>
<text x="265.00" y="408.00" fill="#333333" font-size="11" font-family="Arial, sans-serif" text-anchor="middle" font-weight="normal">2</text>
<line x1="440.00" y1="90.00" x2="440.00" y2="390.00" stroke="#f1f1f1" stroke-width="1.00"/>
<text x="440.00" y="408.00" fill="#333333" font-size="11" font-family="Arial, sans-serif" text-anchor="middle" font-weight="normal">4</text>
<line x1="615.00" y1="90.00" x2="615.00" y2="390.00" stroke="#f1f1f1" stroke-width="1.00"/>
<text x="615.00" y="408.00" fill="#333333" font-size="11" font-family="Arial, sans-serif" text-anchor="middle" font-weight="normal">8</text>
<line x1="790.00" y1="90.00" x2="790.00" y2="390.00" stroke="#f1f1f1" stroke-width="1.00"/>
<text x="790.00" y="408.00" fill="#333333" font-size="11" font-family="Arial, sans-serif" text-anchor="middle" font-weight="normal">16</text>
<line x1="90.00" y1="360.35" x2="790.00" y2="360.35" stroke="#333333" stroke-width="1.20" stroke-dasharray="5,4"/>
<line x1="90.00" y1="390.00" x2="790.00" y2="390.00" stroke="#666666" stroke-width="1.30"/>
<line x1="90.00" y1="90.00" x2="90.00" y2="390.00" stroke="#666666" stroke-width="1.30"/>
<polyline points="90.00,366.75 265.00,351.17 440.00,350.82 615.00,357.97 790.00,356.83" fill="none" stroke="#2ca02c" stroke-width="2.20" stroke-linejoin="round" stroke-linecap="round"/>
<circle cx="90.00" cy="366.75" r="2.80" fill="#2ca02c" stroke="none" stroke-width="1.00"/>
<circle cx="265.00" cy="351.17" r="2.80" fill="#2ca02c" stroke="none" stroke-width="1.00"/>
<circle cx="440.00" cy="350.82" r="2.80" fill="#2ca02c" stroke="none" stroke-width="1.00"/>
<circle cx="615.00" cy="357.97" r="2.80" fill="#2ca02c" stroke="none" stroke-width="1.00"/>
<circle cx="790.00" cy="356.83" r="2.80" fill="#2ca02c" stroke="none" stroke-width="1.00"/>
<polyline points="90.00,369.31 265.00,362.65 440.00,349.08 615.00,328.64 790.00,321.74" fill="none" stroke="#d62728" stroke-width="2.20" stroke-linejoin="round" stroke-linecap="round"/>
<circle cx="90.00" cy="369.31" r="2.80" fill="#d62728" stroke="none" stroke-width="1.00"/>
<circle cx="265.00" cy="362.65" r="2.80" fill="#d62728" stroke="none" stroke-width="1.00"/>
<circle cx="440.00" cy="349.08" r="2.80" fill="#d62728" stroke="none" stroke-width="1.00"/>
<circle cx="615.00" cy="328.64" r="2.80" fill="#d62728" stroke="none" stroke-width="1.00"/>
<circle cx="790.00" cy="321.74" r="2.80" fill="#d62728" stroke="none" stroke-width="1.00"/>
<polyline points="90.00,220.35 265.00,135.17 440.00,118.04 615.00,110.69 790.00,277.15" fill="none" stroke="#ff7f0e" stroke-width="2.20" stroke-linejoin="round" stroke-linecap="round"/>
<circle cx="90.00" cy="220.35" r="2.80" fill="#ff7f0e" stroke="none" stroke-width="1.00"/>
<circle cx="265.00" cy="135.17" r="2.80" fill="#ff7f0e" stroke="none" stroke-width="1.00"/>
<circle cx="440.00" cy="118.04" r="2.80" fill="#ff7f0e" stroke="none" stroke-width="1.00"/>
<circle cx="615.00" cy="110.69" r="2.80" fill="#ff7f0e" stroke="none" stroke-width="1.00"/>
<circle cx="790.00" cy="277.15" r="2.80" fill="#ff7f0e" stroke="none" stroke-width="1.00"/>
<polyline points="90.00,213.41 265.00,178.46 440.00,170.92 615.00,172.11 790.00,290.33" fill="none" stroke="#9467bd" stroke-width="2.20" stroke-linejoin="round" stroke-linecap="round"/>
<circle cx="90.00" cy="213.41" r="2.80" fill="#9467bd" stroke="none" stroke-width="1.00"/>
<circle cx="265.00" cy="178.46" r="2.80" fill="#9467bd" stroke="none" stroke-width="1.00"/>
<circle cx="440.00" cy="170.92" r="2.80" fill="#9467bd" stroke="none" stroke-width="1.00"/>
<circle cx="615.00" cy="172.11" r="2.80" fill="#9467bd" stroke="none" stroke-width="1.00"/>
<circle cx="790.00" cy="290.33" r="2.80" fill="#9467bd" stroke="none" stroke-width="1.00"/>
<text x="440.00" y="78.00" fill="#000" font-size="13" font-family="Arial, sans-serif" text-anchor="middle" font-weight="bold">Geometric mean speedup by thread</text>
<text x="440.00" y="428.00" fill="#000" font-size="12" font-family="Arial, sans-serif" text-anchor="middle" font-weight="normal">threads</text>
<text x="78.00" y="78.00" fill="#444444" font-size="11" font-family="Arial, sans-serif" text-anchor="end" font-weight="normal">speedup</text>
<line x1="120.00" y1="443.00" x2="138.00" y2="443.00" stroke="#2ca02c" stroke-width="2.50"/>
<circle cx="129.00" cy="443.00" r="3.00" fill="#2ca02c" stroke="none" stroke-width="1.00"/>
<text x="144.00" y="447.00" fill="#000" font-size="13" font-family="Arial, sans-serif" text-anchor="start" font-weight="normal">coro</text>
<line x1="290.00" y1="443.00" x2="308.00" y2="443.00" stroke="#d62728" stroke-width="2.50"/>
<circle cx="299.00" cy="443.00" r="3.00" fill="#d62728" stroke="none" stroke-width="1.00"/>
<text x="314.00" y="447.00" fill="#000" font-size="13" font-family="Arial, sans-serif" text-anchor="start" font-weight="normal">ws</text>
<line x1="460.00" y1="443.00" x2="478.00" y2="443.00" stroke="#ff7f0e" stroke-width="2.50"/>
<circle cx="469.00" cy="443.00" r="3.00" fill="#ff7f0e" stroke="none" stroke-width="1.00"/>
<text x="484.00" y="447.00" fill="#000" font-size="13" font-family="Arial, sans-serif" text-anchor="start" font-weight="normal">advws</text>
<line x1="630.00" y1="443.00" x2="648.00" y2="443.00" stroke="#9467bd" stroke-width="2.50"/>
<circle cx="639.00" cy="443.00" r="3.00" fill="#9467bd" stroke="none" stroke-width="1.00"/>
<text x="654.00" y="447.00" fill="#000" font-size="13" font-family="Arial, sans-serif" text-anchor="start" font-weight="normal">elastic</text>
</svg>
