<?xml version="1.0" encoding="UTF-8"?>
<svg xmlns="http://www.w3.org/2000/svg" width="1100" height="560" viewBox="0 0 1100 560">
<rect x="0" y="0" width="1100" height="560" fill="white"/>
<text x="550.00" y="34.00" fill="#000" font-size="20" font-family="Arial, sans-serif" text-anchor="middle" font-weight="bold">Scenario Wins</text>
<rect x="80.00" y="90.00" width="420.00" height="320.00" fill="none" stroke="#999999" stroke-width="1.00" rx="0.00"/>
<line x1="80.00" y1="410.00" x2="500.00" y2="410.00" stroke="#ececec" stroke-width="1.00"/>
<text x="72.00" y="414.00" fill="#444444" font-size="11" font-family="Arial, sans-serif" text-anchor="end" font-weight="normal">0</text>
<line x1="80.00" y1="346.00" x2="500.00" y2="346.00" stroke="#ececec" stroke-width="1.00"/>
<text x="72.00" y="350.00" fill="#444444" font-size="11" font-family="Arial, sans-serif" text-anchor="end" font-weight="normal">2.40</text>
<line x1="80.00" y1="282.00" x2="500.00" y2="282.00" stroke="#ececec" stroke-width="1.00"/>
<text x="72.00" y="286.00" fill="#444444" font-size="11" font-family="Arial, sans-serif" text-anchor="end" font-weight="normal">4.80</text>
<line x1="80.00" y1="218.00" x2="500.00" y2="218.00" stroke="#ececec" stroke-width="1.00"/>
<text x="72.00" y="222.00" fill="#444444" font-size="11" font-family="Arial, sans-serif" text-anchor="end" font-weight="normal">7.20</text>
<line x1="80.00" y1="154.00" x2="500.00" y2="154.00" stroke="#ececec" stroke-width="1.00"/>
<text x="72.00" y="158.00" fill="#444444" font-size="11" font-family="Arial, sans-serif" text-anchor="end" font-weight="normal">9.60</text>
<line x1="80.00" y1="90.00" x2="500.00" y2="90.00" stroke="#ececec" stroke-width="1.00"/>
<text x="72.00" y="94.00" fill="#444444" font-size="11" font-family="Arial, sans-serif" text-anchor="end" font-weight="normal">12.0</text>
<rect x="90.00" y="410.00" width="64.00" height="0.00" fill="#1f77b4" stroke="none" stroke-width="1.00" rx="0.00"/>
<text x="122.00" y="428.00" fill="#000" font-size="11" font-family="Arial, sans-serif" text-anchor="middle" font-weight="normal">classic</text>
<rect x="174.00" y="410.00" width="64.00" height="0.00" fill="#2ca02c" stroke="none" stroke-width="1.00" rx="0.00"/>
<text x="206.00" y="428.00" fill="#000" font-size="11" font-family="Arial, sans-serif" text-anchor="middle" font-weight="normal">coro</text>
<rect x="258.00" y="410.00" width="64.00" height="0.00" fill="#d62728" stroke="none" stroke-width="1.00" rx="0.00"/>
<text x="290.00" y="428.00" fill="#000" font-size="11" font-family="Arial, sans-serif" text-anchor="middle" font-weight="normal">ws</text>
<rect x="342.00" y="90.00" width="64.00" height="320.00" fill="#ff7f0e" stroke="none" stroke-width="1.00" rx="0.00"/>
<text x="374.00" y="428.00" fill="#000" font-size="11" font-family="Arial, sans-serif" text-anchor="middle" font-weight="normal">advws</text>
<rect x="426.00" y="330.00" width="64.00" height="80.00" fill="#9467bd" stroke="none" stroke-width="1.00" rx="0.00"/>
<text x="458.00" y="428.00" fill="#000" font-size="11" font-family="Arial, sans-serif" text-anchor="middle" font-weight="normal">elastic</text>
<text x="290.00" y="80.00" fill="#000" font-size="13" font-family="Arial, sans-serif" text-anchor="middle" font-weight="bold">Total Wins</text>
<rect x="590.00" y="90.00" width="420.00" height="320.00" fill="none" stroke="#999999" stroke-width="1.00" rx="0.00"/>
<line x1="590.00" y1="410.00" x2="1010.00" y2="410.00" stroke="#ececec" stroke-width="1.00"/>
<text x="582.00" y="414.00" fill="#444444" font-size="11" font-family="Arial, sans-serif" text-anchor="end" font-weight="normal">0</text>
<line x1="590.00" y1="346.00" x2="1010.00" y2="346.00" stroke="#ececec" stroke-width="1.00"/>
<text x="582.00" y="350.00" fill="#444444" font-size="11" font-family="Arial, sans-serif" text-anchor="end" font-weight="normal">0.600</text>
<line x1="590.00" y1="282.00" x2="1010.00" y2="282.00" stroke="#ececec" stroke-width="1.00"/>
<text x="582.00" y="286.00" fill="#444444" font-size="11" font-family="Arial, sans-serif" text-anchor="end" font-weight="normal">1.20</text>
<line x1="590.00" y1="218.00" x2="1010.00" y2="218.00" stroke="#ececec" stroke-width="1.00"/>
<text x="582.00" y="222.00" fill="#444444" font-size="11" font-family="Arial, sans-serif" text-anchor="end" font-weight="normal">1.80</text>
<line x1="590.00" y1="154.00" x2="1010.00" y2="154.00" stroke="#ececec" stroke-width="1.00"/>
<text x="582.00" y="158.00" fill="#444444" font-size="11" font-family="Arial, sans-serif" text-anchor="end" font-weight="normal">2.40</text>
<line x1="590.00" y1="90.00" x2="1010.00" y2="90.00" stroke="#ececec" stroke-width="1.00"/>
<text x="582.00" y="94.00" fill="#444444" font-size="11" font-family="Arial, sans-serif" text-anchor="end" font-weight="normal">3.00</text>
<rect x="602.00" y="90.00" width="60.00" height="320.00" fill="#9467bd" stroke="none" stroke-width="1.00" rx="0.00"/>
<text x="632.00" y="428.00" fill="#000" font-size="11" font-family="Arial, sans-serif" text-anchor="middle" font-weight="normal">t1</text>
<rect x="686.00" y="90.00" width="60.00" height="320.00" fill="#ff7f0e" stroke="none" stroke-width="1.00" rx="0.00"/>
<text x="716.00" y="428.00" fill="#000" font-size="11" font-family="Arial, sans-serif" text-anchor="middle" font-weight="normal">t2</text>
<rect x="770.00" y="90.00" width="60.00" height="320.00" fill="#ff7f0e" stroke="none" stroke-width="1.00" rx="0.00"/>
<text x="800.00" y="428.00" fill="#000" font-size="11" font-family="Arial, sans-serif" text-anchor="middle" font-weight="normal">t4</text>
<rect x="854.00" y="90.00" width="60.00" height="320.00" fill="#ff7f0e" stroke="none" stroke-width="1.00" rx="0.00"/>
<text x="884.00" y="428.00" fill="#000" font-size="11" font-family="Arial, sans-serif" text-anchor="middle" font-weight="normal">t8</text>
<rect x="938.00" y="90.00" width="60.00" height="320.00" fill="#ff7f0e" stroke="none" stroke-width="1.00" rx="0.00"/>
<text x="968.00" y="428.00" fill="#000" font-size="11" font-family="Arial, sans-serif" text-anchor="middle" font-weight="normal">t16</text>
<text x="800.00" y="80.00" fill="#000" font-size="13" font-family="Arial, sans-serif" text-anchor="middle" font-weight="bold">Wins by Thread</text>
<line x1="120.00" y1="453.00" x2="138.00" y2="453.00" stroke="#1f77b4" stroke-width="2.50"/>
<circle cx="129.00" cy="453.00" r="3.00" fill="#1f77b4" stroke="none" stroke-width="1.00"/>
<text x="144.00" y="457.00" fill="#000" font-size="13" font-family="Arial, sans-serif" text-anchor="start" font-weight="normal">classic</text>
<line x1="290.00" y1="453.00" x2="308.00" y2="453.00" stroke="#2ca02c" stroke-width="2.50"/>
<circle cx="299.00" cy="453.00" r="3.00" fill="#2ca02c" stroke="none" stroke-width="1.00"/>
<text x="314.00" y="457.00" fill="#000" font-size="13" font-family="Arial, sans-serif" text-anchor="start" font-weight="normal">coro</text>
<line x1="460.00" y1="453.00" x2="478.00" y2="453.00" stroke="#d62728" stroke-width="2.50"/>
<circle cx="469.00" cy="453.00" r="3.00" fill="#d62728" stroke="none" stroke-width="1.00"/>
<text x="484.00" y="457.00" fill="#000" font-size="13" font-family="Arial, sans-serif" text-anchor="start" font-weight="normal">ws</text>
<line x1="630.00" y1="453.00" x2="648.00" y2="453.00" stroke="#ff7f0e" stroke-width="2.50"/>
<circle cx="639.00" cy="453.00" r="3.00" fill="#ff7f0e" stroke="none" stroke-width="1.00"/>
<text x="654.00" y="457.00" fill="#000" font-size="13" font-family="Arial, sans-serif" text-anchor="start" font-weight="normal">advws</text>
<line x1="800.00" y1="453.00" x2="818.00" y2="453.00" stroke="#9467bd" stroke-width="2.50"/>
<circle cx="809.00" cy="453.00" r="3.00" fill="#9467bd" stroke="none" stroke-width="1.00"/>
<text x="824.00" y="457.00" fill="#000" font-size="13" font-family="Arial, sans-serif" text-anchor="start" font-weight="normal">elastic</text>
</svg>
