<?xml version="1.0" encoding="UTF-8"?>
<svg xmlns="http://www.w3.org/2000/svg" width="930" height="520" viewBox="0 0 930 520">
<rect x="0" y="0" width="930" height="520" fill="white"/>
<text x="465.00" y="34.00" fill="#000" font-size="20" font-family="Arial, sans-serif" text-anchor="middle" font-weight="bold">Compute Throughput by Mode</text>
<rect x="90.00" y="90.00" width="700.00" height="300.00" fill="none" stroke="#999999" stroke-width="1.00" rx="0.00"/>
<line x1="90.00" y1="390.00" x2="790.00" y2="390.00" stroke="#e6e6e6" stroke-width="1.00"/>
<text x="82.00" y="394.00" fill="#444444" font-size="11" font-family="Arial, sans-serif" text-anchor="end" font-weight="normal">-1.24</text>
<line x1="90.00" y1="330.00" x2="790.00" y2="330.00" stroke="#e6e6e6" stroke-width="1.00"/>
<text x="82.00" y="334.00" fill="#444444" font-size="11" font-family="Arial, sans-serif" text-anchor="end" font-weight="normal">18.4</text>
<line x1="90.00" y1="270.00" x2="790.00" y2="270.00" stroke="#e6e6e6" stroke-width="1.00"/>
<text x="82.00" y="274.00" fill="#444444" font-size="11" font-family="Arial, sans-serif" text-anchor="end" font-weight="normal">38.0</text>
<line x1="90.00" y1="210.00" x2="790.00" y2="210.00" stroke="#e6e6e6" stroke-width="1.00"/>
<text x="82.00" y="214.00" fill="#444444" font-size="11" font-family="Arial, sans-serif" text-anchor="end" font-weight="normal">57.6</text>
<line x1="90.00" y1="150.00" x2="790.00" y2="150.00" stroke="#e6e6e6" stroke-width="1.00"/>
<text x="82.00" y="154.00" fill="#444444" font-size="11" font-family="Arial, sans-serif" text-anchor="end" font-weight="normal">77.3</text>
<line x1="90.00" y1="90.00" x2="790.00" y2="90.00" stroke="#e6e6e6" stroke-width="1.00"/>
<text x="82.00" y="94.00" fill="#444444" font-size="11" font-family="Arial, sans-serif" text-anchor="end" font-weight="normal">96.9</text>
<line x1="90.00" y1="90.00" x2="90.00" y2="390.00" stroke="#f1f1f1" stroke-width="1.00"/>
<text x="90.00" y="408.00" fill="#333333" font-size="11" font-family="Arial, sans-serif" text-anchor="middle" font-weight="normal">1</text>
<line x1="265.00" y1="90.00" x2="265.00" y2="390.00" stroke="#f1f1f1" stroke-width="1.00"/>
<text x="265.00" y="408.00" fill="#333333" font-size="11" font-family="Arial, sans-serif" text-anchor="middle" font-weight="normal">2</text>
<line x1="440.00" y1="90.00" x2="440.00" y2="390.00" stroke="#f1f1f1" stroke-width="1.00"/>
<text x="440.00" y="408.00" fill="#333333" font-size="11" font-family="Arial, sans-serif" text-anchor="middle" font-weight="normal">4</text>
<line x1="615.00" y1="90.00" x2="615.00" y2="390.00" stroke="#f1f1f1" stroke-width="1.00"/>
<text x="615.00" y="408.00" fill="#333333" font-size="11" font-family="Arial, sans-serif" text-anchor="middle" font-weight="normal">8</text>
<line x1="790.00" y1="90.00" x2="790.00" y2="390.00" stroke="#f1f1f1" stroke-width="1.00"/>
<text x="790.00" y="408.00" fill="#333333" font-size="11" font-family="Arial, sans-serif" text-anchor="middle" font-weight="normal">16</text>
<line x1="90.00" y1="390.00" x2="790.00" y2="390.00" stroke="#666666" stroke-width="1.30"/>
<line x1="90.00" y1="90.00" x2="90.00" y2="390.00" stroke="#666666" stroke-width="1.30"/>
<polyline points="90.00,368.67 265.00,355.03 440.00,330.51 615.00,274.14 790.00,191.12" fill="none" stroke="#1f77b4" stroke-width="2.20" stroke-linejoin="round" stroke-linecap="round"/>
<circle cx="90.00" cy="368.67" r="2.80" fill="#1f77b4" stroke="none" stroke-width="1.00"/>
<circle cx="265.00" cy="355.03" r="2.80" fill="#1f77b4" stroke="none" stroke-width="1.00"/>
<circle cx="440.00" cy="330.51" r="2.80" fill="#1f77b4" stroke="none" stroke-width="1.00"/>
<circle cx="615.00" cy="274.14" r="2.80" fill="#1f77b4" stroke="none" stroke-width="1.00"/>
<circle cx="790.00" cy="191.12" r="2.80" fill="#1f77b4" stroke="none" stroke-width="1.00"/>
<polyline points="90.00,369.15 265.00,353.91 440.00,327.50 615.00,272.69 790.00,187.68" fill="none" stroke="#2ca02c" stroke-width="2.20" stroke-linejoin="round" stroke-linecap="round"/>
<circle cx="90.00" cy="369.15" r="2.80" fill="#2ca02c" stroke="none" stroke-width="1.00"/>
<circle cx="265.00" cy="353.91" r="2.80" fill="#2ca02c" stroke="none" stroke-width="1.00"/>
<circle cx="440.00" cy="327.50" r="2.80" fill="#2ca02c" stroke="none" stroke-width="1.00"/>
<circle cx="615.00" cy="272.69" r="2.80" fill="#2ca02c" stroke="none" stroke-width="1.00"/>
<circle cx="790.00" cy="187.68" r="2.80" fill="#2ca02c" stroke="none" stroke-width="1.00"/>
<polyline points="90.00,369.31 265.00,355.35 440.00,326.28 615.00,256.79 790.00,153.77" fill="none" stroke="#d62728" stroke-width="2.20" stroke-linejoin="round" stroke-linecap="round"/>
<circle cx="90.00" cy="369.31" r="2.80" fill="#d62728" stroke="none" stroke-width="1.00"/>
<circle cx="265.00" cy="355.35" r="2.80" fill="#d62728" stroke="none" stroke-width="1.00"/>
<circle cx="440.00" cy="326.28" r="2.80" fill="#d62728" stroke="none" stroke-width="1.00"/>
<circle cx="615.00" cy="256.79" r="2.80" fill="#d62728" stroke="none" stroke-width="1.00"/>
<circle cx="790.00" cy="153.77" r="2.80" fill="#d62728" stroke="none" stroke-width="1.00"/>
<polyline points="90.00,356.58 265.00,320.64 440.00,263.74 615.00,138.17 790.00,110.69" fill="none" stroke="#ff7f0e" stroke-width="2.20" stroke-linejoin="round" stroke-linecap="round"/>
<circle cx="90.00" cy="356.58" r="2.80" fill="#ff7f0e" stroke="none" stroke-width="1.00"/>
<circle cx="265.00" cy="320.64" r="2.80" fill="#ff7f0e" stroke="none" stroke-width="1.00"/>
<circle cx="440.00" cy="263.74" r="2.80" fill="#ff7f0e" stroke="none" stroke-width="1.00"/>
<circle cx="615.00" cy="138.17" r="2.80" fill="#ff7f0e" stroke="none" stroke-width="1.00"/>
<circle cx="790.00" cy="110.69" r="2.80" fill="#ff7f0e" stroke="none" stroke-width="1.00"/>
<polyline points="90.00,355.97 265.00,327.46 440.00,278.52 615.00,172.03 790.00,123.29" fill="none" stroke="#9467bd" stroke-width="2.20" stroke-linejoin="round" stroke-linecap="round"/>
<circle cx="90.00" cy="355.97" r="2.80" fill="#9467bd" stroke="none" stroke-width="1.00"/>
<circle cx="265.00" cy="327.46" r="2.80" fill="#9467bd" stroke="none" stroke-width="1.00"/>
<circle cx="440.00" cy="278.52" r="2.80" fill="#9467bd" stroke="none" stroke-width="1.00"/>
<circle cx="615.00" cy="172.03" r="2.80" fill="#9467bd" stroke="none" stroke-width="1.00"/>
<circle cx="790.00" cy="123.29" r="2.80" fill="#9467bd" stroke="none" stroke-width="1.00"/>
<text x="440.00" y="78.00" fill="#000" font-size="13" font-family="Arial, sans-serif" text-anchor="middle" font-weight="bold">Approx GFLOP/s from best_s</text>
<text x="440.00" y="428.00" fill="#000" font-size="12" font-family="Arial, sans-serif" text-anchor="middle" font-weight="normal">threads</text>
<text x="78.00" y="78.00" fill="#444444" font-size="11" font-family="Arial, sans-serif" text-anchor="end" font-weight="normal">GFLOP/s</text>
<line x1="120.00" y1="443.00" x2="138.00" y2="443.00" stroke="#1f77b4" stroke-width="2.50"/>
<circle cx="129.00" cy="443.00" r="3.00" fill="#1f77b4" stroke="none" stroke-width="1.00"/>
<text x="144.00" y="447.00" fill="#000" font-size="13" font-family="Arial, sans-serif" text-anchor="start" font-weight="normal">classic</text>
<line x1="260.00" y1="443.00" x2="278.00" y2="443.00" stroke="#2ca02c" stroke-width="2.50"/>
<circle cx="269.00" cy="443.00" r="3.00" fill="#2ca02c" stroke="none" stroke-width="1.00"/>
<text x="284.00" y="447.00" fill="#000" font-size="13" font-family="Arial, sans-serif" text-anchor="start" font-weight="normal">coro</text>
<line x1="400.00" y1="443.00" x2="418.00" y2="443.00" stroke="#d62728" stroke-width="2.50"/>
<circle cx="409.00" cy="443.00" r="3.00" fill="#d62728" stroke="none" stroke-width="1.00"/>
<text x="424.00" y="447.00" fill="#000" font-size="13" font-family="Arial, sans-serif" text-anchor="start" font-weight="normal">ws</text>
<line x1="540.00" y1="443.00" x2="558.00" y2="443.00" stroke="#ff7f0e" stroke-width="2.50"/>
<circle cx="549.00" cy="443.00" r="3.00" fill="#ff7f0e" stroke="none" stroke-width="1.00"/>
<text x="564.00" y="447.00" fill="#000" font-size="13" font-family="Arial, sans-serif" text-anchor="start" font-weight="normal">advws</text>
<line x1="680.00" y1="443.00" x2="698.00" y2="443.00" stroke="#9467bd" stroke-width="2.50"/>
<circle cx="689.00" cy="443.00" r="3.00" fill="#9467bd" stroke="none" stroke-width="1.00"/>
<text x="704.00" y="447.00" fill="#000" font-size="13" font-family="Arial, sans-serif" text-anchor="start" font-weight="normal">elastic</text>
</svg>
