<?xml version="1.0" encoding="UTF-8"?>
<svg xmlns="http://www.w3.org/2000/svg" width="930" height="520" viewBox="0 0 930 520">
<rect x="0" y="0" width="930" height="520" fill="white"/>
<text x="465.00" y="34.00" fill="#000" font-size="20" font-family="Arial, sans-serif" text-anchor="middle" font-weight="bold">Runtime Distribution by Mode</text>
<rect x="90.00" y="90.00" width="700.00" height="300.00" fill="none" stroke="#999999" stroke-width="1.00" rx="0.00"/>
<line x1="90.00" y1="355.23" x2="790.00" y2="355.23" stroke="#ececec" stroke-width="1.00"/>
<text x="82.00" y="359.23" fill="#444444" font-size="11" font-family="Arial, sans-serif" text-anchor="end" font-weight="normal">0.0500</text>
<line x1="90.00" y1="326.14" x2="790.00" y2="326.14" stroke="#ececec" stroke-width="1.00"/>
<text x="82.00" y="330.14" fill="#444444" font-size="11" font-family="Arial, sans-serif" text-anchor="end" font-weight="normal">0.100</text>
<line x1="90.00" y1="297.05" x2="790.00" y2="297.05" stroke="#ececec" stroke-width="1.00"/>
<text x="82.00" y="301.05" fill="#444444" font-size="11" font-family="Arial, sans-serif" text-anchor="end" font-weight="normal">0.200</text>
<line x1="90.00" y1="258.59" x2="790.00" y2="258.59" stroke="#ececec" stroke-width="1.00"/>
<text x="82.00" y="262.59" fill="#444444" font-size="11" font-family="Arial, sans-serif" text-anchor="end" font-weight="normal">0.500</text>
<line x1="90.00" y1="229.50" x2="790.00" y2="229.50" stroke="#ececec" stroke-width="1.00"/>
<text x="82.00" y="233.50" fill="#444444" font-size="11" font-family="Arial, sans-serif" text-anchor="end" font-weight="normal">1.00</text>
<line x1="90.00" y1="200.40" x2="790.00" y2="200.40" stroke="#ececec" stroke-width="1.00"/>
<text x="82.00" y="204.40" fill="#444444" font-size="11" font-family="Arial, sans-serif" text-anchor="end" font-weight="normal">2.00</text>
<line x1="90.00" y1="161.94" x2="790.00" y2="161.94" stroke="#ececec" stroke-width="1.00"/>
<text x="82.00" y="165.94" fill="#444444" font-size="11" font-family="Arial, sans-serif" text-anchor="end" font-weight="normal">5.00</text>
<line x1="90.00" y1="132.85" x2="790.00" y2="132.85" stroke="#ececec" stroke-width="1.00"/>
<text x="82.00" y="136.85" fill="#444444" font-size="11" font-family="Arial, sans-serif" text-anchor="end" font-weight="normal">10.0</text>
<line x1="90.00" y1="103.76" x2="790.00" y2="103.76" stroke="#ececec" stroke-width="1.00"/>
<text x="82.00" y="107.76" fill="#444444" font-size="11" font-family="Arial, sans-serif" text-anchor="end" font-weight="normal">20.0</text>
<line x1="160.00" y1="91.01" x2="160.00" y2="174.33" stroke="#555555" stroke-width="1.00"/>
<line x1="160.00" y1="293.74" x2="160.00" y2="372.40" stroke="#555555" stroke-width="1.00"/>
<line x1="140.68" y1="91.01" x2="179.32" y2="91.01" stroke="#555555" stroke-width="1.00"/>
<line x1="140.68" y1="372.40" x2="179.32" y2="372.40" stroke="#555555" stroke-width="1.00"/>
<rect x="127.80" y="174.33" width="64.40" height="119.41" fill="#1f77b4" stroke="#333333" stroke-width="1.00" rx="0.00"/>
<line x1="127.80" y1="228.96" x2="192.20" y2="228.96" stroke="#111111" stroke-width="1.50"/>
<text x="160.00" y="408.00" fill="#000" font-size="11" font-family="Arial, sans-serif" text-anchor="middle" font-weight="normal">classic</text>
<line x1="300.00" y1="90.00" x2="300.00" y2="172.82" stroke="#555555" stroke-width="1.00"/>
<line x1="300.00" y1="292.69" x2="300.00" y2="374.11" stroke="#555555" stroke-width="1.00"/>
<line x1="280.68" y1="90.00" x2="319.32" y2="90.00" stroke="#555555" stroke-width="1.00"/>
<line x1="280.68" y1="374.11" x2="319.32" y2="374.11" stroke="#555555" stroke-width="1.00"/>
<rect x="267.80" y="172.82" width="64.40" height="119.87" fill="#2ca02c" stroke="#333333" stroke-width="1.00" rx="0.00"/>
<line x1="267.80" y1="229.45" x2="332.20" y2="229.45" stroke="#111111" stroke-width="1.50"/>
<text x="300.00" y="408.00" fill="#000" font-size="11" font-family="Arial, sans-serif" text-anchor="middle" font-weight="normal">coro</text>
<line x1="440.00" y1="91.10" x2="440.00" y2="175.00" stroke="#555555" stroke-width="1.00"/>
<line x1="440.00" y1="296.77" x2="440.00" y2="382.08" stroke="#555555" stroke-width="1.00"/>
<line x1="420.68" y1="91.10" x2="459.32" y2="91.10" stroke="#555555" stroke-width="1.00"/>
<line x1="420.68" y1="382.08" x2="459.32" y2="382.08" stroke="#555555" stroke-width="1.00"/>
<rect x="407.80" y="175.00" width="64.40" height="121.77" fill="#d62728" stroke="#333333" stroke-width="1.00" rx="0.00"/>
<line x1="407.80" y1="227.31" x2="472.20" y2="227.31" stroke="#111111" stroke-width="1.50"/>
<text x="440.00" y="408.00" fill="#000" font-size="11" font-family="Arial, sans-serif" text-anchor="middle" font-weight="normal">ws</text>
<line x1="580.00" y1="113.48" x2="580.00" y2="202.61" stroke="#555555" stroke-width="1.00"/>
<line x1="580.00" y1="313.94" x2="580.00" y2="390.00" stroke="#555555" stroke-width="1.00"/>
<line x1="560.68" y1="113.48" x2="599.32" y2="113.48" stroke="#555555" stroke-width="1.00"/>
<line x1="560.68" y1="390.00" x2="599.32" y2="390.00" stroke="#555555" stroke-width="1.00"/>
<rect x="547.80" y="202.61" width="64.40" height="111.32" fill="#ff7f0e" stroke="#333333" stroke-width="1.00" rx="0.00"/>
<line x1="547.80" y1="260.75" x2="612.20" y2="260.75" stroke="#111111" stroke-width="1.50"/>
<text x="580.00" y="408.00" fill="#000" font-size="11" font-family="Arial, sans-serif" text-anchor="middle" font-weight="normal">advws</text>
<line x1="720.00" y1="114.46" x2="720.00" y2="199.83" stroke="#555555" stroke-width="1.00"/>
<line x1="720.00" y1="312.91" x2="720.00" y2="388.34" stroke="#555555" stroke-width="1.00"/>
<line x1="700.68" y1="114.46" x2="739.32" y2="114.46" stroke="#555555" stroke-width="1.00"/>
<line x1="700.68" y1="388.34" x2="739.32" y2="388.34" stroke="#555555" stroke-width="1.00"/>
<rect x="687.80" y="199.83" width="64.40" height="113.08" fill="#9467bd" stroke="#333333" stroke-width="1.00" rx="0.00"/>
<line x1="687.80" y1="256.74" x2="752.20" y2="256.74" stroke="#111111" stroke-width="1.50"/>
<text x="720.00" y="408.00" fill="#000" font-size="11" font-family="Arial, sans-serif" text-anchor="middle" font-weight="normal">elastic</text>
<text x="440.00" y="80.00" fill="#000" font-size="13" font-family="Arial, sans-serif" text-anchor="middle" font-weight="bold">best_s distribution (log scale)</text>
<text x="62.00" y="80.00" fill="#000" font-size="11" font-family="Arial, sans-serif" text-anchor="start" font-weight="normal">seconds</text>
</svg>
